{"title":"Bitcoin.The.End.of.Money.as.We.Know.It.2015.1080p.WEB-DL.x264","uid":12136073,"size":2204290155,"categoryP":"video","categoryS":"hd___movies","magnet":"?xt=urn:btih:ff7c3d9a55c5abe4c8c5d4fa9964acb90937e34c&amp;dn=Bitcoin.The.End.of.Money.as.We.Know.It.2015.1080p.WEB-DL.x264&amp;tr=udp%3A%2F%2Ftracker.openbittorrent.com%3A80&amp;tr=udp%3A%2F%2Fopen.demonii.com%3A1337&amp;tr=udp%3A%2F%2Ftracker.coppersurfer.tk%3A6969&amp;tr=udp%3A%2F%2Fexodus.desync.com%3A6969","seeders":0,"leechers":0,"uploader":"Charlie303","files":3,"time":1437179322,"description":"Bitcoin.The.End.of.Money.as.We.Know.It.2015.1080p.WEB-DL.x264\n &lt;a href=&quot;\nhttp://www.imdb.com/title/tt4654844/&quot; rel=&quot;nofollow&quot; target=&quot;_NEW&quot;&gt;\nhttp://www.imdb.com/title/tt4654844/&lt;/a&gt;\n\nBitcoin: The End Of Money As We Know It traces the history of money from the bartering societies of the ancient world to the trading floors of Wall St. The documentary exposes the practices of central banks and the dubious financial actors who brought the world to its knees in the last crisis. It highlights the Government influence on the money creation process and how it causes inflation. Moreover, this film explains how most money we use today is created out of thin air by banks when they create debt. Epic in scope, this film examines the patterns of technological innovation and questions everything you thought you knew about money. Is Bitcoin an alternative to national currencies backed by debt? Will Bitcoin and cryptocurrency spark a revolution in how we use money peer to peer? Is it a gift to criminals? Or is it the next bubble waiting to burst? If you trust in your money just as it is - this film has news for you.\n- Written by Torsten Hoffmann\n\nSubtitles: English .srt included\n\nGeneral\nComplete name               : Bitcoin.The.End.of.Money.as.We.Know.It.2015.1080p.WEB-DL.x264.mp4\nFormat                      : MPEG-4\nFormat profile              : Base Media / Version 2\nCodec ID                    : mp42\nFile size                   : 2.05 GiB\nDuration                    : 1h 0mn\nOverall bit rate mode       : Variable\nOverall bit rate            : 4 893 Kbps\nEncoded date                : UTC 2015-07-13 16:35:17\nTagged date                 : UTC 2015-07-13 16:35:17\nWriting application         : HandBrake 0.10.2 2015061100\n\nVideo\nID                          : 1\nFormat                      : AVC\nFormat/Info                 : Advanced Video Codec\nFormat profile              : &lt;a class=&quot;__cf_email__&quot; href=&quot;/cdn-cgi/l/email-protection&quot; data-cfemail=&quot;a4e9c5cdcae4e8978a95&quot;&gt;[email&amp;#160;protected]&lt;/a&gt;&lt;script data-cfhash='f9e31' type=&quot;text/javascript&quot;&gt;\n/* &lt;![CDATA[ */!function(){try{var t=&quot;currentScript&quot;in document?document.currentScript:function(){for(var t=document.getElementsByTagName(&quot;script&quot;),e=t.length;e--;)if(t[e].getAttribute(&quot;data-cfhash&quot;))return t[e]}();if(t&amp;&amp;t.previousSibling){var e,r,n,i,c=t.previousSibling,a=c.getAttribute(&quot;data-cfemail&quot;);if(a){for(e=&quot;&quot;,r=parseInt(a.substr(0,2),16),n=2;a.length-n;n+=2)i=parseInt(a.substr(n,2),16)^r,e+=String.fromCharCode(i);e=document.createTextNode(e),c.parentNode.replaceChild(e,c)}t.parentNode.removeChild(t);}}catch(u){}}()/* ]]&gt; */&lt;/script&gt;\nFormat settings, CABAC      : Yes\nFormat settings, ReFrames   : 2 frames\nCodec ID                    : avc1\nCodec ID/Info               : Advanced Video Coding\nDuration                    : 1h 0mn\nBit rate                    : 4 500 Kbps\nWidth                       : 1 920 pixels\nHeight                      : 1 080 pixels\nDisplay aspect ratio        : 16:9\nFrame rate mode             : Variable\nFrame rate                  : 23.976 fps\nMinimum frame rate          : 23.974 fps\nMaximum frame rate          : 23.981 fps\nColor space                 : YUV\nChroma subsampling          : 4:2:0\nBit depth                   : 8 bits\nScan type                   : Progressive\nBits/(Pixel*Frame)          : 0.091\nStream size                 : 1.89 GiB (92%)\nWriting library             : x264 core 142 r2479 dd79a61\nEncoding settings           : cabac=1 / ref=2 / deblock=1:0:0 / analyse=0x1:0x111 / me=hex / subme=7 / psy=1 / psy_rd=1.00:0.00 / mixed_ref=1 / me_range=16 / chroma_me=1 / trellis=1 / 8x8dct=0 / cqm=0 / deadzone=21,11 / fast_pskip=1 / chroma_qp_offset=-2 / threads=12 / lookahead_threads=2 / sliced_threads=0 / nr=0 / decimate=1 / interlaced=0 / bluray_compat=0 / constrained_intra=0 / bframes=3 / b_pyramid=0 / b_adapt=1 / b_bias=0 / direct=1 / weightb=1 / open_gop=0 / weightp=2 / keyint=240 / keyint_min=24 / scenecut=40 / intra_refresh=0 / rc_lookahead=40 / rc=2pass / mbtree=1 / bitrate=4500 / ratetol=1.0 / qcomp=0.60 / qpmin=0 / qpmax=69 / qpstep=4 / cplxblur=20.0 / qblur=0.5 / vbv_maxrate=14000 / vbv_bufsize=14000 / nal_hrd=none / filler=0 / ip_ratio=1.40 / aq=1:1.00\nEncoded date                : UTC 2015-07-13 16:35:17\nTagged date                 : UTC 2015-07-13 16:35:17\nColor range                 : Limited\nColor primaries             : BT.709\nTransfer characteristics    : BT.709\nMatrix coefficients         : BT.709\n\nAudio #1\nID                          : 2\nFormat                      : AAC\nFormat/Info                 : Advanced Audio Codec\nFormat profile              : LC\nCodec ID                    : 40\nDuration                    : 1h 0mn\nBit rate mode               : Variable\nBit rate                    : 165 Kbps\nChannel(s)                  : 2 channels\nChannel positions           : Front: L R\nSampling rate               : 48.0 KHz\nCompression mode            : Lossy\nStream size                 : 70.7 MiB (3%)\nTitle                       : Stereo\nLanguage                    : English\nEncoded date                : UTC 2015-07-13 16:35:17\nTagged date                 : UTC 2015-07-13 16:35:17\n\nAudio #2\nID                          : 3\nFormat                      : AC-3\nFormat/Info                 : Audio Coding 3\nMode extension              : CM (complete main)\nFormat settings, Endianness : Big\nCodec ID                    : ac-3\nDuration                    : 1h 0mn\nBit rate mode               : Constant\nBit rate                    : 224 Kbps\nChannel(s)                  : 2 channels\nChannel positions           : Front: L R\nSampling rate               : 48.0 KHz\nBit depth                   : 16 bits\nCompression mode            : Lossy\nStream size                 : 96.2 MiB (5%)\nTitle                       : Stereo\nLanguage                    : English\nEncoded date                : UTC 2015-07-13 16:35:17\nTagged date                 : UTC 2015-07-13 16:35:17","torrent":{"xt":"urn:btih:ff7c3d9a55c5abe4c8c5d4fa9964acb90937e34c","amp;dn":"Bitcoin.The.End.of.Money.as.We.Know.It.2015.1080p.WEB-DL.x264","amp;tr":["udp%3A%2F%2Ftracker.openbittorrent.com%3A80","udp%3A%2F%2Fopen.demonii.com%3A1337","udp%3A%2F%2Ftracker.coppersurfer.tk%3A6969","udp%3A%2F%2Fexodus.desync.com%3A6969"],"infoHash":"ff7c3d9a55c5abe4c8c5d4fa9964acb90937e34c","infoHashBuffer":{"type":"Buffer","data":[255,124,61,154,85,197,171,228,200,197,212,250,153,100,172,185,9,55,227,76]},"announce":[],"urlList":[]}}